<?xml version="1.0" ?><!DOCTYPE svg  PUBLIC '-//W3C//DTD SVG 1.1//EN'  'http://www.w3.org/Graphics/SVG/1.1/DTD/svg11.dtd'><svg enable_background="new 0 0 1000 788" height="788px" style="stroke-linejoin: round; stroke:#000; fill: none;" version="1.1" viewBox="0 0 1000 788" width="1000px" xmlns="http://www.w3.org/2000/svg" xmlns:xlink="http://www.w3.org/1999/xlink"><defs><style type="text/css"><![CDATA[path { fill-rule: evenodd; }]]></style></defs><metadata><views><view h="788.340344232" padding="0" w="1000"><proj dist="1.58" id="satellite" lat0="9.75" lon0="-2.5" tilt="0" up="0"/><bbox h="235.8" w="299.49" x="746.14" y="189.39"/></view></views></metadata><g class="" id="world"><path d="M1000.000000,80.764902L999.740860,80.598715L999.323154,80.026135L998.838552,79.547204L997.825405,79.338592L996.860075,79.246089L995.188992,78.897350L994.337748,78.811957L993.214834,78.602330L992.433958,78.159290L991.783301,77.702548L991.081604,77.446802L989.123577,77.765487L987.167956,79.942756L984.001707,81.084233L983.011680,81.339135L982.550280,81.070604L982.054318,80.520885L980.996616,80.452192L979.015287,80.804955L977.747144,81.308896L976.416505,82.033147L974.832642,82.670807L971.778299,83.086336L971.164789,83.478895L970.219041,84.467902L967.682183,85.966574L965.717327,86.859359L964.829198,87.261019L962.718854,89.184162L962.288985,89.491392L960.291358,89.538523L959.299698,89.824102L958.731564,90.489999L955.938972,95.338979L954.986393,96.344324L954.157249,97.511447L953.261968,100.608640L952.581604,101.912125L951.679957,102.712476L950.328076,103.581242L948.732371,104.277275L947.127658,104.551073L944.941112,106.316662L944.517993,106.567358L944.049837,106.726588L941.806507,107.132749L933.689747,107.619290L932.030924,107.968201L921.967586,113.394694L921.296007,114.562661L920.348745,114.960787L914.881362,116.107269L912.110492,118.200794L910.787046,118.804297L909.663032,118.949289L907.070987,118.883242L906.351908,118.984830L904.138706,120.012574L896.089709,121.452929L894.609373,122.216637L894.040219,122.355253L893.323663,122.270793L891.339852,121.847508L885.776082,122.322784L882.863529,121.848929L879.740695,120.993103L876.750184,120.564447L874.217212,121.376502L873.951613,121.088445L873.677311,120.990179L873.375633,120.962340L873.031386,120.877484L871.100499,121.328523L871.246447,123.953389L872.077237,125.726465L873.632150,127.057460L876.270444,127.704100L879.503891,129.194827L882.210832,130.828581L885.138683,132.045650L889.029248,132.292366L890.132012,132.838270L890.483536,133.635144L890.609013,134.553289L891.047890,135.487214L892.251921,136.407485L896.873938,138.259988L899.843045,140.056440L909.032920,143.823208L910.634080,144.872180L910.330622,145.364420L909.216038,145.915378L907.159810,148.967690L902.684832,153.515619L901.995116,154.668801L912.641929,161.738377L915.837122,162.383236L916.829446,162.758213L907.661319,170.085501L911.068983,172.711420L913.350108,175.796337L919.908250,188.663440L920.165993,189.639204L920.403016,190.536619L920.217372,191.937271L916.357461,203.240026L916.132636,206.553817L917.010512,210.040773L917.991543,212.116056L917.944722,212.897346L917.293503,213.941681L916.410655,214.696927L915.390892,215.295589L914.547606,216.009601L914.166471,217.102000L914.727623,218.230008L916.105925,218.871604L919.206233,219.630870L920.777585,220.413033L921.762653,221.262189L925.930239,227.747527L926.398148,230.116607L925.315494,232.066546L924.009213,233.403845L922.426201,237.411956L921.242527,239.221560L920.353921,241.050135L920.498465,248.183079L921.372681,250.577868L925.991426,253.619438L927.657904,255.714710L928.931540,258.017962L930.836539,259.831567L933.205225,261.323275L935.864767,262.650282L937.409686,263.671220L938.032844,265.196253L938.051025,266.910009L937.809737,268.515322L937.620073,269.270532L937.265229,269.958312L936.749491,270.567207L936.085960,271.064883L932.301459,272.942983L944.945170,287.202339L947.973833,288.983875L953.784449,290.511931L979.676043,304.365691L981.153259,306.080061L976.018768,310.164157L973.048256,311.755585L969.693731,312.703841L965.920405,313.052634L964.451128,313.585460L963.017347,314.933204L962.148788,316.263790L961.011866,318.984473L959.773720,325.912757L959.611752,326.818663L959.660298,327.462248L959.547062,328.086957L958.988981,328.895090L958.432285,329.295947L956.944758,330.132301L956.603375,330.608271L957.044529,331.854024L958.531079,331.886350L961.913785,330.953521L963.669191,330.953323L965.599817,331.380735L967.121161,332.333288L967.634530,333.928535L965.909272,336.631407L962.321165,337.212454L955.377700,336.919891L954.597170,336.885780L952.388935,336.792707L948.891105,336.650380L944.265448,336.464988L938.673659,336.238857L932.277678,335.982191L925.225101,335.701008L917.677975,335.409107L909.793342,335.108098L901.728395,334.807156L893.635427,334.507156L885.681081,334.216549L878.017618,333.939393L870.811556,333.687327L864.205431,333.455827L858.365607,333.259921L845.712990,332.840523L829.189842,336.105975L812.088004,337.165598L806.764900,339.299974L813.008125,351.302596L816.823202,358.863327L800.615917,360.536139L780.460738,364.964616L753.256338,368.627093L749.799585,368.869050L745.859952,368.249971L739.469991,370.672893L737.588892,390.962828L730.673978,391.340483L725.451198,394.109113L724.232374,395.185052L723.809593,396.634410L724.208972,402.608521L723.958042,404.422855L721.895546,406.883325L721.220688,408.446524L721.505623,409.825452L722.594856,410.531502L724.155521,410.591738L725.844371,410.037997L728.644783,408.122512L730.053639,407.572290L731.679243,407.866905L732.990661,408.896074L735.473216,411.875754L737.108496,413.036818L740.461699,414.222737L741.543683,414.944506L742.407157,416.415296L742.787213,417.828885L742.872418,419.382123L747.806282,425.351646L742.377933,431.569563L737.671126,434.983234L738.193152,440.057365L738.717007,445.144401L720.650089,452.098827L704.658779,455.089908L690.064362,455.809349L678.712240,458.213578L669.265191,462.316510L658.188590,472.751367L644.512160,480.975011L630.303461,485.784320L620.100063,489.976497L611.849203,494.730350L600.780485,501.865165L590.455249,507.269162L580.634449,515.017186L573.317504,525.096036L563.920705,535.848387L553.180520,546.087052L543.600740,548.637965L535.693604,546.424797L532.878939,538.802693L520.717417,540.232473L509.182674,542.248398L497.116013,542.514815L483.048904,542.837375L469.561909,544.338364L455.253533,547.642735L441.770363,549.168287L433.198883,555.306594L416.994451,550.422030L406.375896,550.128248L398.981505,550.929291L387.952578,554.793352L378.543898,562.173669L367.746340,562.016260L365.703929,562.646004L363.579015,562.899640L361.451782,562.903922L357.301158,562.467833L352.861458,562.453772L349.483027,563.681559L343.150360,568.495143L341.588179,569.451452L336.802614,571.460684L330.487583,575.943252L319.772119,581.649030L310.297591,588.489639L306.909292,590.358958L295.709375,594.490743L288.781639,598.226096L281.869513,603.251290L280.203938,604.055988L276.696956,605.370249L275.147024,606.349689L271.301460,611.088052L269.975542,612.113088L265.396034,614.195106L260.755052,617.096269L247.850206,622.849015L245.899892,624.154915L244.624434,625.835283L243.980934,628.192664L243.476355,632.176178L242.815065,637.413195L242.155574,642.654507L241.496462,647.911404L240.838022,653.181627L240.180825,658.460618L239.524312,663.752916L238.869053,669.053945L238.215334,674.361382L237.561751,679.686673L236.909436,685.020636L236.257834,690.367857L235.607231,695.726021L234.957912,701.092798L234.310161,706.465837L233.662864,711.854397L233.015752,717.260822L232.003678,725.755571L230.994981,734.269956L229.988293,742.815611L228.983640,751.392515L247.201079,761.415277L265.536720,771.497111L283.971997,781.657140L292.476690,786.340344L1000.000000,786.340344L1000.000000,80.764902Z " data-country="Algeria"/><path d="M692.802204,116.889399L692.648984,116.867526L692.534046,116.861760L692.448128,116.851187L692.375983,116.867961L692.455308,116.906173L692.586199,116.931842L692.728347,116.937677L692.802204,116.889399Z M853.517012,115.133242L853.267841,114.872781L852.851163,114.926149L852.712752,115.194082L853.095183,115.355112L853.517012,115.133242Z M726.823519,113.593207L726.792802,113.564413L726.736818,113.604423L726.721529,113.622526L726.772223,113.638610L726.823519,113.593207Z M727.002116,113.432615L726.935205,113.435603L726.888152,113.449575L726.884389,113.469788L726.910249,113.476223L726.954206,113.466767L727.012117,113.470603L727.002116,113.432615Z M811.781740,108.916114L811.781234,108.915635L811.757075,108.894226L811.008894,108.187766L808.835136,105.441764L807.183908,106.495209L807.428238,108.317302L809.188758,109.521984L811.781740,108.916114Z M601.294740,70.423987L601.071323,70.297600L600.889948,70.386604L600.923915,70.555156L601.117954,70.597574L601.294740,70.423987Z M608.684702,70.842828L607.339261,70.204544L605.540647,69.608565L603.956278,69.555095L602.798306,69.688781L602.796203,69.688963L603.433215,71.105538L604.266245,72.385398L605.466678,73.499591L607.237853,74.509739L607.758201,73.538007L611.593465,71.651102L612.451158,70.281536L610.183899,71.026348L608.684702,70.842828Z M499.685497,0.000000L500.160074,0.139383L518.919480,7.974628L521.047783,9.350739L522.628974,11.192110L524.747529,15.137255L526.824159,16.864944L529.738131,16.745199L530.298999,16.040744L530.296171,12.384602L531.091052,11.090244L532.714605,10.349851L536.275392,9.435025L537.688023,10.175538L539.765857,10.080159L541.922524,9.511288L543.569298,8.831382L541.022215,10.708779L534.433812,10.623509L531.486754,12.136870L530.849692,13.597172L531.225448,16.109462L530.192130,17.555524L529.034600,18.149219L525.884522,18.904922L524.332700,19.408676L522.662409,20.463902L522.146686,21.571129L522.518464,22.699660L523.512383,23.803923L524.235387,24.955678L524.931474,27.367362L526.056325,28.105971L527.512812,28.285680L533.066271,28.334598L533.909112,28.582358L537.607445,30.714590L538.194629,31.869866L537.435296,33.770262L537.987836,34.698844L539.420200,34.774893L541.138705,34.393071L541.721135,34.417826L539.808084,35.692028L538.821753,36.544283L538.155032,36.909391L537.113088,37.082582L535.965292,36.256129L535.423684,35.677686L535.910768,35.140150L535.274244,34.602918L532.826253,33.230738L532.153308,33.161865L531.101561,33.480967L531.746813,33.961794L533.432961,34.813923L535.024748,36.916457L536.041751,38.736602L537.668476,41.414093L540.260416,43.304989L540.878104,44.351189L541.295813,45.475457L541.385610,46.506866L541.819180,47.391707L546.187654,48.733079L547.842281,50.560782L549.238491,52.613689L551.179643,54.294568L555.521533,54.955577L559.282734,54.418772L561.097269,54.352077L562.633919,54.947829L567.715865,58.048096L569.338051,59.614951L570.533619,60.296410L574.010178,60.829771L575.597978,61.414808L577.295755,61.729954L579.328576,61.223698L580.733714,61.891914L584.124657,63.019539L585.436305,64.906905L588.059442,64.362931L589.313017,63.846411L597.870293,61.791856L599.667826,61.323339L600.275254,60.968862L600.883918,60.526994L601.212424,59.809148L601.015419,59.299711L600.610372,58.692759L600.474294,57.717645L600.936017,57.244515L600.462325,56.435145L600.475444,55.537687L600.921119,54.727710L601.739226,54.172868L602.068621,53.550785L603.682196,53.545235L605.608661,53.934265L606.884149,54.480052L607.443607,55.854944L609.082726,55.815837L609.744045,52.861984L610.197091,52.201948L613.205617,49.042944L614.224249,48.178309L613.925808,47.619666L613.876907,47.147187L615.278649,46.794191L615.985478,46.492965L616.625990,46.137396L617.064827,45.842503L617.893420,44.888072L619.490177,42.576992L619.609672,41.988498L622.108203,39.490716L623.273286,38.592075L624.378562,38.180693L625.734626,37.870132L628.792569,37.578177L629.834997,37.340776L633.795114,35.816519L639.493402,35.394219L645.554618,32.807439L646.531645,32.344695L647.333922,32.172565L649.183274,32.188584L658.763850,32.728495L662.202337,32.724742L665.764701,32.175867L667.541464,31.720773L668.344751,31.429477L671.312120,30.236460L673.754337,27.523267L679.004341,27.007973L681.609373,24.511397L682.024952,23.513767L682.966064,22.605728L684.138313,21.859449L684.643250,21.334333L687.106737,18.890360L688.212270,18.309681L689.643600,18.042773L704.356953,18.521454L706.659257,18.304113L713.875995,17.571695L716.432065,16.446894L718.367957,16.150763L726.221347,17.348002L732.184887,16.261606L736.418359,15.688584L739.296601,16.237249L745.219396,17.298770L749.489960,16.967311L750.686553,16.309261L753.442015,16.165946L756.036474,16.063952L757.217521,17.030386L760.214614,17.873590L761.367763,17.493931L763.037397,17.317904L766.164215,18.820747L771.337441,18.815335L774.384941,17.666003L776.101229,16.915861L777.272417,16.235053L778.512021,15.738451L786.943704,15.076304L792.821295,15.672237L799.471886,15.317963L806.805142,16.059006L811.328078,15.151729L812.923649,15.228183L815.218746,16.193912L817.461979,17.991571L818.328758,18.278416L819.092559,18.141486L819.850935,17.568164L820.597560,17.433972L822.117596,17.834011L823.739192,18.608528L825.911065,19.477566L827.611929,19.042001L829.097556,19.368829L831.910104,19.121842L834.025287,18.577041L834.965957,18.001893L835.371525,17.826779L837.491254,16.513172L839.195578,13.779208L840.841366,11.446451L842.174447,10.989365L848.732699,10.309031L849.728136,10.443055L851.965424,11.018992L852.729205,11.143375L854.413714,10.916346L857.094279,10.080982L858.626572,9.899325L860.489881,10.055255L862.210247,10.444268L865.157008,11.535188L867.371693,12.924492L869.409466,14.596602L871.743899,16.005804L874.857476,16.599393L876.463604,16.459511L878.116970,16.068502L879.403331,15.477565L880.236898,14.316030L881.012220,14.129696L881.929457,13.988696L882.682920,13.703063L883.109962,13.202722L883.520582,12.052219L883.833307,11.586949L885.175573,10.724200L886.464370,10.154378L887.420650,9.427678L888.225839,6.923458L889.356654,6.110929L892.227961,4.944460L893.243123,4.347706L893.743489,4.209612L895.589551,4.137259L896.216990,3.992561L896.612991,3.679264L896.739598,3.143131L896.578155,2.615641L896.267343,2.154054L896.025419,1.614340L896.080872,0.869999L896.966597,0.000000L499.685497,0.000000Z " data-country="Spain"/><path d="M607.443607,55.854944L607.998138,57.217492L608.635008,57.757106L608.959857,56.907534L608.922681,56.531243L609.082726,55.815837L607.443607,55.854944Z " data-country="Gibraltar"/><path d="M132.057548,786.340344L138.942506,781.515188L147.707810,775.736313L155.405202,771.971334L161.381061,770.860340L167.962306,770.621518L175.525828,770.170602L187.550433,770.638544L195.635126,770.357541L206.846934,768.725727L216.272060,766.888489L220.625819,763.975034L221.056105,760.306259L219.687513,754.921010L218.113504,749.732658L218.113425,744.944365L220.057152,739.836025L221.963520,735.791517L221.731277,729.447554L219.785616,722.039421L219.753900,717.902484L219.914178,717.711369L219.914281,717.711246L219.962571,717.709576L226.185172,717.495626L233.015752,717.260822L233.662864,711.854397L234.310161,706.465837L234.957912,701.092798L235.607231,695.726021L236.257834,690.367857L236.909436,685.020636L237.561751,679.686673L238.215334,674.361382L238.869053,669.053945L239.524312,663.752916L240.180825,658.460618L240.838022,653.181627L241.496462,647.911404L242.155574,642.654507L242.815065,637.413195L243.476355,632.176178L243.980934,628.192664L244.624434,625.835283L245.899892,624.154915L247.850206,622.849015L260.755052,617.096269L265.396034,614.195106L269.975542,612.113088L271.301460,611.088052L275.147024,606.349689L276.696956,605.370249L280.203938,604.055988L281.869513,603.251290L288.781639,598.226096L295.709375,594.490743L306.909292,590.358958L310.297591,588.489639L319.772119,581.649030L330.487583,575.943252L336.802614,571.460684L341.588179,569.451452L343.150360,568.495143L349.483027,563.681559L352.861458,562.453772L357.301158,562.467833L361.451782,562.903922L363.579015,562.899640L365.703929,562.646004L367.746340,562.016260L378.543898,562.173669L387.952578,554.793352L398.981505,550.929291L406.375896,550.128248L416.994451,550.422030L433.198883,555.306594L441.770363,549.168287L455.253533,547.642735L469.561909,544.338364L483.048904,542.837375L497.116013,542.514815L509.182674,542.248398L520.717417,540.232473L532.878939,538.802693L535.693604,546.424797L543.600740,548.637965L553.180520,546.087052L563.920705,535.848387L573.317504,525.096036L580.634449,515.017186L590.455249,507.269162L600.780485,501.865165L611.849203,494.730350L620.100063,489.976497L630.303461,485.784320L644.512160,480.975011L658.188590,472.751367L669.265191,462.316510L678.712240,458.213578L690.064362,455.809349L704.658779,455.089908L720.650089,452.098827L738.717007,445.144401L738.193152,440.057365L737.671126,434.983234L742.377933,431.569563L747.806282,425.351646L742.872418,419.382123L742.787213,417.828885L742.407157,416.415296L741.543683,414.944506L740.461699,414.222737L737.108496,413.036818L735.473216,411.875754L732.990661,408.896074L731.679243,407.866905L730.053639,407.572290L728.644783,408.122512L725.844371,410.037997L724.155521,410.591738L722.594856,410.531502L721.505623,409.825452L721.220688,408.446524L721.895546,406.883325L723.958042,404.422855L724.208972,402.608521L723.809593,396.634410L724.232374,395.185052L725.451198,394.109113L730.673978,391.340483L737.588892,390.962828L739.469991,370.672893L745.859952,368.249971L749.799585,368.869050L753.256338,368.627093L780.460738,364.964616L800.615917,360.536139L816.823202,358.863327L813.008125,351.302596L806.764900,339.299974L812.088004,337.165598L829.189842,336.105975L845.712990,332.840523L858.365607,333.259921L864.205431,333.455827L870.811556,333.687327L878.017618,333.939393L885.681081,334.216549L893.635427,334.507156L901.728395,334.807156L909.793342,335.108098L917.677975,335.409107L925.225101,335.701008L932.277678,335.982191L938.673659,336.238857L944.265448,336.464988L948.891105,336.650380L952.388935,336.792707L954.597170,336.885780L955.377700,336.919891L962.321165,337.212454L965.909272,336.631407L967.634530,333.928535L967.121161,332.333288L965.599817,331.380735L963.669191,330.953323L961.913785,330.953521L958.531079,331.886350L957.044529,331.854024L956.603375,330.608271L956.944758,330.132301L958.432285,329.295947L958.988981,328.895090L959.547062,328.086957L959.660298,327.462248L959.611752,326.818663L959.773720,325.912757L961.011866,318.984473L962.148788,316.263790L963.017347,314.933204L964.451128,313.585460L965.920405,313.052634L969.693731,312.703841L973.048256,311.755585L976.018768,310.164157L981.153259,306.080061L979.676043,304.365691L953.784449,290.511931L947.973833,288.983875L944.945170,287.202339L932.301459,272.942983L936.085960,271.064883L936.749491,270.567207L937.265229,269.958312L937.620073,269.270532L937.809737,268.515322L938.051025,266.910009L938.032844,265.196253L937.409686,263.671220L935.864767,262.650282L933.205225,261.323275L930.836539,259.831567L928.931540,258.017962L927.657904,255.714710L925.991426,253.619438L921.372681,250.577868L920.498465,248.183079L920.353921,241.050135L921.242527,239.221560L922.426201,237.411956L924.009213,233.403845L925.315494,232.066546L926.398148,230.116607L925.930239,227.747527L921.762653,221.262189L920.777585,220.413033L919.206233,219.630870L916.105925,218.871604L914.727623,218.230008L914.166471,217.102000L914.547606,216.009601L915.390892,215.295589L916.410655,214.696927L917.293503,213.941681L917.944722,212.897346L917.991543,212.116056L917.010512,210.040773L916.132636,206.553817L916.357461,203.240026L920.217372,191.937271L920.403016,190.536619L920.165993,189.639204L919.908250,188.663440L913.350108,175.796337L911.068983,172.711420L907.661319,170.085501L916.829446,162.758213L915.837122,162.383236L912.641929,161.738377L901.995116,154.668801L902.684832,153.515619L907.159810,148.967690L909.216038,145.915378L910.330622,145.364420L910.634080,144.872180L909.032920,143.823208L899.843045,140.056440L896.873938,138.259988L892.251921,136.407485L891.047890,135.487214L890.609013,134.553289L890.483536,133.635144L890.132012,132.838270L889.029248,132.292366L885.138683,132.045650L882.210832,130.828581L879.503891,129.194827L876.270444,127.704100L873.632150,127.057460L872.077237,125.726465L871.246447,123.953389L871.100499,121.328523L868.845980,120.795148L866.551743,119.969787L864.499396,119.541099L862.571501,119.345942L854.361965,117.321753L852.608608,117.591116L850.974715,118.428955L849.161529,119.749554L847.774159,120.296613L845.692361,120.632732L841.752535,120.848120L832.839729,120.051423L828.403123,119.075188L824.732359,117.734760L820.664781,115.053236L820.007051,114.342579L815.874011,111.500382L814.717406,110.927949L814.302770,111.445855L815.565581,112.842342L822.090188,117.613470L825.835595,119.548340L819.568574,119.167195L816.552464,118.550104L814.333599,117.531490L813.106415,116.532572L812.363632,115.754374L811.972145,114.883790L811.698252,112.741230L811.795985,111.634140L812.185705,110.629225L812.957708,110.029760L811.781740,108.916114L809.188758,109.521984L807.428238,108.317302L807.183908,106.495209L808.835136,105.441764L808.834551,105.441026L808.810593,105.408963L808.671924,105.101413L807.571702,102.571477L808.463035,100.564862L808.077291,99.789802L808.552115,98.660215L808.180640,98.125983L807.166989,97.788794L806.364521,97.996938L805.939316,98.542100L806.099516,99.229202L803.894438,101.268558L800.459784,106.484667L797.716519,108.246171L796.633129,108.358606L795.716049,108.148199L794.922248,107.880945L794.211299,107.852226L793.293896,108.224514L789.357909,110.851453L787.523685,111.579814L776.812901,114.055159L773.123830,114.562504L768.761190,114.366823L767.878892,114.181851L766.209386,113.676751L765.271780,113.487129L764.335940,113.480810L763.247275,113.564676L762.224364,113.551135L759.958377,112.739626L753.547571,112.147398L751.752227,111.366808L748.224222,109.307907L746.590129,108.603655L744.369645,108.431493L742.065515,109.017430L740.226917,110.265607L739.439693,112.074891L738.598429,113.270390L736.629982,113.901837L733.666025,114.094304L732.035152,114.203216L729.666169,114.099459L727.893251,114.048508L726.653098,113.680616L725.451197,112.587895L724.906926,112.134618L724.539721,111.743685L724.966759,111.491936L726.017088,111.257885L726.296607,110.966887L725.478680,110.213057L721.836369,111.337846L714.472064,112.386213L707.178850,114.537905L695.206594,116.017934L690.150915,118.086923L688.366730,118.420845L685.935584,118.343438L675.907955,116.592993L675.807603,116.581108L664.524947,115.136536L652.509305,112.991286L649.165418,111.800963L644.717490,109.116958L640.990914,108.363500L639.602155,107.352309L637.354765,105.285268L634.599441,103.672308L632.978981,102.961118L631.457727,102.680139L629.390298,102.490554L628.128658,101.866771L621.462309,95.570346L618.606966,93.832175L615.160563,92.300678L613.470177,91.292669L612.685471,90.007237L611.562948,86.591726L611.539680,86.184837L611.799841,85.199098L611.715410,84.825536L611.289447,84.751137L609.839905,84.925713L609.346408,84.879178L608.723828,84.426190L608.260812,83.838625L608.002715,83.068424L607.840064,80.364782L606.873599,77.059392L606.735171,75.467230L607.229324,74.526080L607.237569,74.510270L607.237853,74.509739L605.466678,73.499591L604.266245,72.385398L603.433215,71.105538L602.796203,69.688963L602.757059,69.692352L602.251025,69.573510L602.029942,69.691604L601.786634,70.186475L601.419265,70.684496L600.635510,70.731433L599.663491,70.406564L599.301038,70.180093L598.624731,70.169732L596.833133,70.734401L595.190833,71.628139L591.977822,73.858182L590.493384,74.680415L585.357777,76.641913L583.988127,76.087978L582.020428,75.828363L580.022895,75.910970L578.512457,76.379652L577.484871,76.078320L575.928886,76.353289L574.351586,76.905140L573.254145,77.431679L570.844123,78.911244L569.811831,79.058790L562.149785,78.557342L559.207528,78.935863L557.478947,80.048125L556.621796,81.043069L555.879316,82.555709L555.053880,85.601901L554.731694,86.247874L553.514739,87.265607L553.196366,87.872930L552.986770,88.422325L550.855443,91.972076L548.762123,94.604019L548.294139,95.538476L547.963716,97.133063L547.375015,98.387611L529.238205,123.632836L520.002654,140.153959L498.520792,166.247587L496.289938,168.418461L494.519192,171.163146L493.502883,172.360289L482.871729,182.131922L476.167161,190.503876L467.443857,199.341427L457.446465,206.347042L447.715993,211.582603L444.474223,212.438296L441.502972,214.186954L439.961999,214.618869L439.922545,214.623118L436.773567,215.072068L433.135714,216.072053L429.804242,217.372026L426.204784,219.512553L419.380483,222.677000L418.316559,223.170416L416.409063,223.620407L414.707598,223.277968L415.376245,222.727068L413.642151,223.179579L410.922047,225.314916L408.276328,226.243350L404.967175,228.956323L403.731675,229.600286L401.992814,230.298341L400.100812,230.872762L397.490957,231.313416L395.876284,232.028255L395.011441,232.289824L394.053688,232.254596L393.274069,232.010358L392.447946,231.947092L391.367836,232.430997L389.690074,232.187345L388.084501,233.157235L386.462070,234.440730L384.759522,235.115072L383.086089,235.435696L379.427866,236.813700L373.405327,238.288595L371.125896,239.049922L368.985457,240.789255L366.721596,241.508026L362.567796,242.374620L358.086192,243.872060L349.390980,246.775738L337.156244,249.179752L333.363473,250.394898L329.978412,252.293362L324.166537,256.902989L320.711290,258.827393L317.324167,260.113060L315.694403,260.443262L313.551810,260.620996L312.817157,260.507556L312.070797,259.897235L311.340077,259.783820L310.594292,260.092430L302.385183,266.402636L301.436184,267.365137L301.237987,268.928987L300.988143,269.855155L300.178732,270.739616L287.764385,279.793766L276.263384,289.714342L272.949663,291.851881L263.715590,296.516127L252.272290,305.464135L237.894878,313.988002L235.819724,316.352399L235.659095,317.605635L235.968041,318.821607L236.549643,319.865049L237.200871,320.591518L237.688607,321.752794L237.264394,323.244030L236.351777,324.775526L233.375329,328.259835L232.618936,329.438505L232.132964,331.078862L232.412743,331.612479L233.974578,332.132403L234.282808,332.482512L232.485909,340.301396L231.400728,342.675635L229.777833,344.836905L226.067106,347.918420L225.464977,348.880970L225.095713,350.139900L223.542070,353.247835L222.668254,354.411107L221.330072,356.019961L209.481558,364.477314L208.950928,365.051370L207.942888,366.411090L207.142618,367.191177L206.298196,367.809463L204.863990,368.612239L204.109886,369.164483L199.858928,373.067391L190.545288,380.032943L189.627071,381.286088L187.282530,387.563258L186.713553,388.321308L185.289502,389.655228L184.598350,390.573807L183.169117,391.624050L182.424438,393.032633L181.755717,393.634494L179.900309,394.824064L178.676889,395.991859L175.764649,400.789921L173.204174,403.592949L169.923385,406.430036L170.879492,407.436950L171.941995,408.110353L172.722941,409.051515L172.786466,410.868573L171.794515,415.380052L167.508977,426.662208L166.060262,428.577986L167.019389,431.354282L167.112888,432.758558L165.114086,448.379394L164.800045,449.344487L164.477430,449.929074L164.439647,450.431911L164.956319,451.121025L165.181631,451.866818L164.938703,452.868934L164.043486,454.693850L161.893898,457.386163L158.990254,460.365696L156.559851,463.488562L155.868192,466.595370L156.995902,467.683757L159.038158,467.932611L160.963377,467.920192L166.919829,470.984026L168.234421,473.085104L168.951413,473.678926L169.933987,473.916665L170.939285,473.950514L171.637763,474.303503L171.956426,476.955075L173.624995,480.932348L174.416789,482.275325L175.766961,483.468178L177.063188,484.154415L177.906872,485.171780L177.952203,487.334388L177.446012,488.964036L174.885711,494.474288L171.664441,505.005532L170.266404,508.103858L162.758316,519.139180L151.211772,532.670713L137.554700,543.494674L133.021515,547.796247L132.238819,549.163488L131.376372,550.237171L126.431982,553.677947L125.239052,554.983071L124.128008,556.726410L123.259297,558.636199L122.761929,560.427836L122.046066,561.397384L117.482443,566.133966L116.369828,567.946682L115.844051,568.503988L112.196286,570.589578L111.605695,571.335022L110.902588,572.906271L109.583782,574.456635L106.848067,576.958854L104.144164,579.924699L102.478771,581.290205L98.777781,582.500530L96.827499,583.768006L93.914207,586.319029L82.389613,598.487956L69.493651,607.763210L65.570608,609.888751L57.417266,613.456891L50.460978,617.245880L22.042889,629.670017L20.461417,630.549264L17.468991,632.938099L15.099808,635.680888L14.722815,636.035518L11.177955,638.293438L10.608585,638.889016L9.632505,640.114098L8.785130,640.818882L4.575585,643.010322L3.630725,644.288079L0.000000,647.575866L0.000000,786.340344L4.601150,786.340344L8.269973,785.101754L17.173628,784.704440L24.256774,783.502078L33.943815,784.858804L43.733793,785.328021L46.410829,786.340344L132.057548,786.340344Z " data-country="Morocco"/><path d="M292.476690,786.340344L283.971997,781.657140L265.536720,771.497111L247.201079,761.415277L228.983640,751.392515L228.847155,752.647947L228.436938,756.210437L227.792327,761.757162L226.974280,768.957180L226.005512,777.504317L225.003739,786.340344L292.476690,786.340344Z " data-country="Mauritania"/><path d="M408.726554,11.097531L408.836108,10.922056L409.345610,10.696734L409.199110,10.257921L409.092934,10.068071L408.941017,9.897375L406.798153,11.166156L405.123062,11.603486L401.007441,11.452609L400.925789,11.902063L402.817938,12.209159L405.032386,12.143708L407.136717,11.749936L408.726554,11.097531Z M329.866835,0.000000L329.797687,0.109431L327.696440,1.359178L326.083463,2.245968L326.430596,3.980463L325.060901,5.458947L323.520102,7.166207L319.768311,10.301809L319.308288,10.677360L318.692585,11.535136L317.781987,13.251671L319.045639,12.876708L319.840886,13.154494L320.599291,13.635458L321.751858,13.840724L322.625118,13.608609L324.401989,12.700028L325.281985,12.465478L325.997624,12.126301L327.625255,11.179982L329.124216,11.479358L331.080203,10.435002L333.023754,10.032749L334.245959,9.913678L335.347133,9.574161L337.581511,8.679040L338.575385,8.466529L343.488531,8.205233L346.356720,6.432253L347.493460,5.931228L348.720410,5.664325L352.485947,5.301259L355.828014,5.491976L359.805463,6.690714L359.984460,6.587187L363.310042,7.190812L366.861024,6.749567L369.382154,5.978023L372.306852,6.462013L374.937861,6.906953L381.494218,6.037547L384.218917,5.834335L386.633236,6.405450L389.841634,6.682721L395.223577,8.320286L397.856136,9.643830L399.375203,11.156071L399.364690,10.643146L399.172077,10.272702L398.515010,9.561962L399.244743,9.768474L400.205120,10.102964L401.056112,10.129040L401.874290,9.405463L403.191534,9.677466L408.164274,9.487708L409.830856,9.620846L411.027002,9.892490L412.194351,9.851749L415.110701,8.287617L428.196452,2.774928L428.914678,2.235214L433.931209,0.205814L434.765021,0.000000L329.866835,0.000000Z " data-country="Portugal"/><path d="M225.003739,786.340344L226.005512,777.504317L226.974280,768.957180L227.792327,761.757162L228.436938,756.210437L228.847155,752.647947L228.983640,751.392515L229.988293,742.815611L230.994981,734.269956L232.003678,725.755571L233.015752,717.260822L226.185172,717.495626L219.962571,717.709576L219.914281,717.711246L219.914178,717.711369L219.753900,717.902484L219.785616,722.039421L221.731277,729.447554L221.963520,735.791517L220.057152,739.836025L218.113425,744.944365L218.113504,749.732658L219.687513,754.921010L221.056105,760.306259L220.625819,763.975034L216.272060,766.888489L206.846934,768.725727L195.635126,770.357541L187.550433,770.638544L175.525828,770.170602L167.962306,770.621518L161.381061,770.860340L155.405202,771.971334L147.707810,775.736313L138.942506,781.515188L132.057548,786.340344L225.003739,786.340344Z M46.410829,786.340344L43.733793,785.328021L33.943815,784.858804L24.256774,783.502078L17.173628,784.704440L8.269973,785.101754L4.601150,786.340344L46.410829,786.340344Z " data-country="Western Sahara"/></g></svg>